<?xml version="1.0" encoding="UTF-8" standalone="no"?>
<!-- Created with Inkscape (http://www.inkscape.org/) -->

<svg
   xmlns:dc="http://purl.org/dc/elements/1.1/"
   xmlns:cc="http://creativecommons.org/ns#"
   xmlns:rdf="http://www.w3.org/1999/02/22-rdf-syntax-ns#"
   xmlns:svg="http://www.w3.org/2000/svg"
   xmlns="http://www.w3.org/2000/svg"
   xmlns:sodipodi="http://sodipodi.sourceforge.net/DTD/sodipodi-0.dtd"
   xmlns:inkscape="http://www.inkscape.org/namespaces/inkscape"
   width="118.02568mm"
   height="118.02568mm"
   viewBox="0 0 118.02568 118.02568"
   version="1.1"
   id="svg8"
   inkscape:version="0.92.5 (2060ec1f9f, 2020-04-08)"
   sodipodi:docname="printer-icon.svg">
  <defs
     id="defs2" />
  <sodipodi:namedview
     id="base"
     pagecolor="#ffffff"
     bordercolor="#666666"
     borderopacity="1.0"
     inkscape:pageopacity="0.0"
     inkscape:pageshadow="2"
     inkscape:zoom="0.7"
     inkscape:cx="9.5015971"
     inkscape:cy="85.792422"
     inkscape:document-units="mm"
     inkscape:current-layer="layer1"
     showgrid="false"
     inkscape:window-width="1872"
     inkscape:window-height="1016"
     inkscape:window-x="1968"
     inkscape:window-y="27"
     inkscape:window-maximized="1"
     fit-margin-top="0"
     fit-margin-left="0"
     fit-margin-right="0"
     fit-margin-bottom="0" />
  <metadata
     id="metadata5">
    <rdf:RDF>
      <cc:Work
         rdf:about="">
        <dc:format>image/svg+xml</dc:format>
        <dc:type
           rdf:resource="http://purl.org/dc/dcmitype/StillImage" />
        <dc:title></dc:title>
      </cc:Work>
    </rdf:RDF>
  </metadata>
  <g
     inkscape:label="Layer 1"
     inkscape:groupmode="layer"
     id="layer1"
     transform="translate(-1.5121358,-0.47749291)">
    <g
       aria-label=""
       transform="matrix(2.9506421,0,0,2.9506421,-554.89713,-772.01444)"
       style="font-style:normal;font-variant:normal;font-weight:normal;font-stretch:normal;font-size:40px;line-height:1.25;font-family:experimenta;-inkscape-font-specification:experimenta;letter-spacing:0px;word-spacing:0px;fill:#000000;fill-opacity:1;stroke:none"
       id="flowRoot4518">
      <path
         d="m 227.98633,290.00781 h -11.17188 v -6.40625 q 0,0 0,0 0,0 0,-0.0391 0,0 0,0 0,-0.0391 0,-0.0781 0,0 0,0 0,-0.0391 0,-0.0391 v 0 -0.0391 q 0,-0.0391 -0.0391,-0.0391 0,-0.0391 0,-0.0781 v 0 l -0.0391,-0.0391 q 0,-0.0391 -0.0391,-0.0391 0,-0.0391 -0.0391,-0.0391 v 0 l -0.0391,-0.0391 h -0.0781 l -7.38282,-3.24219 V 276.531 l 3.51563,-6.44531 h 14.6875 V 285.906 q 0,0.23437 0.15625,0.42969 0.19531,0.15625 0.46875,0.15625 0.23437,0 0.39062,-0.15625 0.19532,-0.19532 0.19532,-0.42969 v 0 -23.51563 q 0,-0.23437 -0.19532,-0.39062 -0.15625,-0.19531 -0.39062,-0.19531 v 0 H 189.1582 q -0.23437,0 -0.42968,0.19531 -0.15625,0.15625 -0.15625,0.39062 v 0 38.82813 q 0,0.23437 0.15625,0.39062 0.19531,0.19532 0.42968,0.19532 v 0 h 5.85938 q 0.23437,0 0.39062,-0.19532 0.19532,-0.15625 0.19532,-0.39062 v 0 -3.125 h 25.9375 v 3.125 q 0,0.23437 0.15625,0.39062 0.19531,0.19532 0.42968,0.19532 v 0 h 5.85938 q 0.23437,0 0.39062,-0.19532 0.19532,-0.15625 0.19532,-0.39062 v 0 -10.625 q 0,-0.23438 -0.19532,-0.39063 -0.15625,-0.19531 -0.39062,-0.19531 v 0 z m -26.44531,-5.46875 6.44531,2.92969 v 5.70312 l -6.44531,-3.00781 z m 7.61718,2.92969 6.44532,-2.96875 v 5.66406 l -6.44532,3.00781 z m -0.58593,-1.01563 -6.17188,-2.85156 6.17188,-2.69531 6.17187,2.69531 z m 3.20312,-17.22656 -3.20312,5.89844 -3.20313,-5.85938 v -2.65625 h 6.40625 z m 15.58594,-6.21094 v 5.89844 h -14.375 v -2.89062 q 0,-0.27344 -0.19531,-0.42969 -0.15625,-0.19531 -0.42969,-0.19531 v 0 h -7.57813 q -0.27343,0 -0.46875,0.19531 -0.15625,0.15625 -0.15625,0.42969 v 0 2.89062 h -14.375 v -5.89844 z m 0,37.57813 h -4.60938 v -3.08594 q 0,-0.27344 -0.19531,-0.42969 -0.15625,-0.19531 -0.42969,-0.19531 v 0 h -27.10937 q -0.23438,0 -0.42969,0.19531 -0.15625,0.15625 -0.15625,0.42969 v 0 3.08594 h -4.64844 v -30.50781 h 14.6875 l 3.51563,6.44531 v 3.35937 l -7.30469,3.16407 h -0.11719 l -0.0391,0.0391 q -0.0391,0 -0.0391,0.0391 0,0 -0.0391,0.0391 v 0 l -0.0391,0.0391 q 0,0.0391 -0.0391,0.0781 0,0 0,0 v 0.0391 q 0,0 0,0 0,0 0,0.0391 0,0 0,0.0391 0,0 0,0 0,0.0391 0,0.0781 0,0 0,0 v 0 q 0,0 0,0 0,0 0,0.0391 v 0 6.48437 h -6.5625 q -0.23437,0 -0.42969,0.19531 -0.15625,0.15625 -0.15625,0.39063 0,0.23437 0.15625,0.42969 0.19532,0.15625 0.42969,0.15625 v 0 h 6.99219 l 7.53906,3.47656 v 0 q 0.0781,0 0.11719,0.0391 0.0391,0 0.11719,0 0.0781,0 0.11718,0 0.0391,-0.0391 0.11719,-0.0391 v 0 0 l 7.53906,-3.47656 h 11.01563 z"
         style="fill:#000000;fill-opacity:1"
         id="path4576"
         inkscape:connector-curvature="0" />
    </g>
  </g>
</svg>
